<svg xmlns="http://www.w3.org/2000/svg" xmlns:xlink="http://www.w3.org/1999/xlink" width="512" height="512" viewBox="0,0,256,256"><g fill="#ffffff" fill-rule="nonzero" stroke="none" stroke-width="1" stroke-linecap="butt" stroke-linejoin="miter" stroke-miterlimit="10" stroke-dasharray="" stroke-dashoffset="0" font-family="none" font-weight="none" font-size="none" text-anchor="none" style="mix-blend-mode: normal"><g transform="translate(0,0.05) scale(0.5,0.5)"><path d="M343.9,74.7c0,-4.4 3.6,-8 8,-8c62.5,0 113.3,50.8 113.3,113.3c0,4.4 -3.6,8 -8,8c-4.4,0 -8,-3.6 -8,-8c0,-53.7 -43.6,-97.3 -97.3,-97.3c-4.5,0 -8,-3.6 -8,-8zM512,295.2c0,4.4 -3.6,7.9 -8,7.9c0,0 0,0 -0.1,0l-58.4,-0.5c-39.6,47.8 -91.7,95.8 -135.3,135.9c-19.2,17.7 -35.8,33 -48.6,45.8c-1.5,1.5 -3.5,2.3 -5.7,2.3c-2.1,0 -4.2,-0.8 -5.7,-2.3c-12.8,-12.8 -29.4,-28.1 -48.7,-45.9c-44.7,-41.2 -98.3,-90.5 -138.2,-139.5h-55.3c-4.4,0 -8,-3.6 -8,-8c0,-4.4 3.6,-8 8,-8h42.9c-27.2,-36.1 -45.5,-71.6 -45.5,-102.9c0,-85.3 69.4,-154.8 154.8,-154.8c34.8,0 68.6,11.8 95.8,33.3c27.2,-21.5 61,-33.3 95.9,-33.3c85.3,0 154.8,69.4 154.8,154.8c0,32.3 -19.6,69.2 -48.3,106.7l45.8,0.4c4.3,0 7.8,3.7 7.8,8.1zM71.3,283.1h101.3l37.3,-160.6c0.8,-3.6 4.1,-6.2 7.8,-6.2c3.7,0 6.9,2.6 7.8,6.2l47.3,201.2l30.2,-103c0.9,-3.2 3.8,-5.5 7.1,-5.7c3.3,-0.2 6.5,1.6 7.9,4.6l30.4,66.3l89.5,0.7c30.9,-38.3 52.7,-75.8 52.7,-106.6c0,-76.5 -62.2,-138.8 -138.7,-138.8c-33.3,0 -65.5,12 -90.6,33.7c-3,2.6 -7.5,2.6 -10.5,0c-25.2,-21.7 -57.3,-33.7 -90.6,-33.7c-76.6,0.1 -138.8,62.3 -138.8,138.8c0,29.9 20.5,66 49.9,103.1zM424.6,302.5l-81.4,-0.6c-3.1,0 -5.9,-1.8 -7.2,-4.7l-23.6,-51.4l-32.7,111.5c-1,3.4 -4.1,5.8 -7.7,5.8c-0.1,0 -0.1,0 -0.2,0c-3.6,-0.1 -6.7,-2.6 -7.6,-6.2l-46.4,-197.4l-31,133.4c-0.8,3.6 -4.1,6.2 -7.8,6.2h-94.5c38.9,45.6 88.6,91.4 128,127.7c16.7,15.4 31.4,28.9 43.5,40.7c12.1,-11.8 26.8,-25.3 43.4,-40.7c38.4,-35.3 86.7,-79.8 125.2,-124.3z"></path></g></g></svg>