<svg xmlns="http://www.w3.org/2000/svg" xmlns:xlink="http://www.w3.org/1999/xlink" width="512" height="512" viewBox="0,0,256,256"><g fill="#8eba1c" fill-rule="nonzero" stroke="none" stroke-width="1" stroke-linecap="butt" stroke-linejoin="miter" stroke-miterlimit="10" stroke-dasharray="" stroke-dashoffset="0" font-family="none" font-weight="none" font-size="none" text-anchor="none" style="mix-blend-mode: normal"><g transform="translate(0,0)"><g><g transform="translate(0.00006,-0.00025) scale(0.5,0.5)"><g><path d="M491.801,354.57l-39.249,-18.13l2.02,-8.48c33.729,-14.37 57.428,-47.87 57.428,-86.82c-0.03,-23.6 -8.72,-46.19 -24.469,-63.62c-2.78,-3.08 -7.52,-3.32 -10.59,-0.54c-3.08,2.78 -3.32,7.52 -0.54,10.59c13.26,14.68 20.57,33.71 20.6,53.57c0,43.73 -35.529,79.31 -79.208,79.31c-43.679,0 -79.208,-35.58 -79.208,-79.31c0,-43.28 35.569,-78.86 79.288,-79.3c12.11,-0.13 23.759,2.48 34.589,7.75c3.73,1.82 8.21,0.27 10.03,-3.46c1.81,-3.72 0.26,-8.21 -3.46,-10.02c-12.94,-6.3 -26.889,-9.43 -41.319,-9.27c-11.99,0.12 -23.629,2.45 -34.449,6.74c-5.967,-4.828 -13.01,-9.519 -21.193,-13.538c3.448,-4.363 6.639,-9.16 9.529,-14.362l28.663,-51.714c2.106,-3.815 2.243,-7.988 0.376,-11.45c-1.87,-3.466 -5.44,-5.646 -9.834,-5.984l-58.901,-4.228c-22.336,-1.608 -38.558,3.426 -49.984,10.048v-3.759c0,-17.42 -14.16,-31.592 -31.566,-31.592c-17.406,0 -31.566,14.172 -31.566,31.592v71.809c-27.22,-4.641 -51.981,-2.397 -73.86,6.739c-23.159,9.67 -42.749,27.3 -57.059,51.18c-0.06,-0.03 -0.11,-0.06 -0.16,-0.09c-3.82,-2.17 -7.37,-2.57 -10.55,-1.19c-4.63,2.01 -5.96,6.57 -6.82,10.16c-8.35,19.08 -13.96,42.56 -17.14,71.76l-45.577,21.059c-5.61,2.6 -8.73,9.12 -7.26,15.13l14.9,62.39c0.8,3.41 2.99,6.23 6.02,7.73c1.53,0.76 3.2,1.14 4.9,1.14c1.63,0 3.29,-0.36 4.86,-1.07l38.049,-17.59c8.72,34.29 24.429,64.96 45.489,87.07c25.049,26.28 57.018,40.18 92.457,40.18h86.688c32.819,0 61.759,-11.39 86.018,-33.85c11.43,-10.59 21.54,-23.54 30.049,-38.34l58.588,27.05c1.57,0.73 3.23,1.1 4.89,1.1c1.66,0 3.32,-0.37 4.84,-1.12c3.05,-1.48 5.26,-4.31 6.05,-7.7l14.89,-62.41c1.49,-5.99 -1.73,-12.66 -7.249,-15.16zM281.92,80.612c8.926,-7.518 24.225,-15.126 48.909,-13.347l53.856,3.866l-26.201,47.271c-3.276,5.895 -6.97,11.153 -11.004,15.709c-17.568,-5.757 -39.237,-8.154 -65.561,-3.689v-49.81zM233.788,58.592c0,-9.149 7.431,-16.592 16.566,-16.592c9.135,0 16.566,7.443 16.566,16.592v75.007c-3.334,0.845 -16.044,4.731 -16.554,4.851c-0.52,-0.12 -13.219,-4.01 -16.578,-4.862zM239.557,150.78c1.4,0.43 2.53,0.8 3.49,1.11c6.5,2.11 8.15,2.11 14.64,0c0.94,-0.31 2.08,-0.68 3.45,-1.11c42.269,-12.95 79.068,-9.35 107.188,10.31c-6.14,3.81 -11.9,8.32 -17.12,13.54c-17.809,17.75 -27.619,41.37 -27.619,66.51c0,10.3 1.66,20.22 4.72,29.51c-21.86,-2.96 -43.579,-7.12 -64.728,-12.43c-0.06,-0.02 -0.11,-0.03 -0.17,-0.04c-54.959,-12.46 -108.187,-32.95 -162.436,-62.55c28.637,-47.6 77.556,-63.55 138.585,-44.85zM28.842,359.83l-13.57,-56.83l41.849,-19.33c1.3,1.29 2.77,2.37 4.25,3.32c-0.58,18.9 0.96,37.71 4.39,55.77zM293.725,470h-86.688c-31.679,0 -59.129,-11.95 -81.598,-35.53c-21.069,-22.11 -36.309,-53.72 -43.859,-88.95c-3.46,-16.13 -5.29,-33.02 -5.33,-50.1c23.249,12.68 47.629,24.07 72.628,33.92c3.85,1.52 8.21,-0.38 9.73,-4.23c1.51,-3.85 -0.38,-8.21 -4.23,-9.73c-28.209,-11.12 -55.609,-24.23 -81.448,-38.98c-0.01,-0.01 -0.02,-0.01 -0.03,-0.02c-0.02,-0.01 -0.05,-0.03 -0.08,-0.04l-0.46,-0.26c-1.68,-0.96 -3.95,-2.25 -4.63,-2.96c0,-0.19 0.03,-0.57 0.18,-1.2c0.07,-0.3 0.12,-0.6 0.15,-0.91c0.33,-3.08 0.69,-6.08 1.08,-9.02c3.11,-23.6 8,-42.85 14.87,-58.61c0.44,0.25 0.88,0.5 1.33,0.74c0.57,0.33 1.14,0.64 1.72,0.96c0.03,0.02 0.06,0.04 0.1,0.06c0.01,0.01 0.03,0.01 0.04,0.02c21.27,11.872 42.381,22.369 63.489,31.563l-4.232,17.75c-0.96,4.029 1.527,8.075 5.557,9.035c0.585,0.14 1.17,0.206 1.745,0.206c3.393,0 6.469,-2.317 7.29,-5.762l3.653,-15.32c29.133,11.891 58.329,21.319 88.002,28.446l-4.286,17.925c-0.964,4.029 1.521,8.075 5.55,9.039c0.586,0.14 1.173,0.208 1.75,0.208c3.392,0 6.466,-2.315 7.288,-5.758l4.288,-17.936c22.255,5.287 45.057,9.364 67.961,12.113c1.67,3.02 3.48,5.88 5.43,8.59c17.06,24.29 45.259,40.19 77.108,40.19c6.84,0 13.51,-0.74 19.929,-2.13c0.05,-0.01 0.11,-0.02 0.16,-0.03l-1.28,5.33c-0.06,0.21 -0.11,0.42 -0.15,0.63l-4.72,19.76c-0.15,0.6 -0.29,0.96 -0.37,1.13c-0.94,0.32 -3.51,0.44 -5.43,0.53l-0.63,0.03c-79.638,3.94 -162.796,-7.88 -240.484,-34.18c-3.93,-1.33 -8.19,0.78 -9.51,4.7c-1.33,3.93 0.77,8.18 4.7,9.51c69.458,23.52 143.217,35.71 215.125,35.71c5.07,0 10.14,-0.06 15.19,-0.18c-12.82,34.461 -45.269,93.741 -116.598,93.741zM470.591,424.36l-53.799,-24.85c3.61,-7.57 6.84,-15.54 9.66,-23.85l0.18,-0.01c7.06,-0.33 16.72,-0.78 19.68,-13.15l2.68,-11.18l35.159,16.24z"></path><path d="M460.417,205.462c-3.112,-2.737 -7.848,-2.435 -10.585,0.676l-48.226,54.801l-16.907,-13.169c-3.268,-2.545 -7.98,-1.959 -10.525,1.308c-2.545,3.268 -1.96,7.98 1.309,10.526l22.479,17.509c1.365,1.064 2.99,1.583 4.604,1.583c2.086,0 4.157,-0.867 5.634,-2.545l52.892,-60.103c2.737,-3.11 2.435,-7.849 -0.675,-10.586z"></path></g></g></g></g></g></svg>