<svg xmlns="http://www.w3.org/2000/svg" xmlns:xlink="http://www.w3.org/1999/xlink" width="682.66669" height="682.66669" viewBox="0,0,256,256"><defs><clipPath id="clip-1"><path d="M0,512h512v-512h-512z" id="clipPath1625" stroke="none" stroke-width="1" stroke-linecap="butt" stroke-linejoin="miter"></path></clipPath></defs><g fill="none" fill-rule="nonzero" stroke="none" stroke-width="none" stroke-linecap="none" stroke-linejoin="none" stroke-miterlimit="10" stroke-dasharray="" stroke-dashoffset="0" font-family="none" font-weight="none" font-size="none" text-anchor="none" style="mix-blend-mode: normal"><g transform="translate(0.00001,0) scale(0.375,0.375)"><g transform="translate(0,682.66667) scale(1.33333,-1.33333)" id="g1617"><g id="g1619"><g clip-path="url(#clip-1)" id="g1621"><g transform="translate(256,100)" id="g1627" stroke="#ffffff" stroke-width="30" stroke-linecap="round" stroke-linejoin="round"><path d="M0,0c-86.019,0 -156,69.981 -156,156c0,86.019 69.981,156 156,156c86.019,0 156,-69.981 156,-156c0,-86.019 -69.981,-156 -156,-156z" id="path1629"></path></g><g transform="translate(256,190)" id="g1631" stroke="#ffffff" stroke-width="30" stroke-linecap="round" stroke-linejoin="round"><path d="M0,0c-36.393,0 -66,29.607 -66,66c0,36.393 29.607,66 66,66c36.393,0 66,-29.607 66,-66c0,-36.393 -29.607,-66 -66,-66z" id="path1633"></path></g><g transform="translate(256,256)" id="g1635" stroke="#ffffff" stroke-width="30" stroke-linecap="round" stroke-linejoin="round"><path d="M0,0l110.309,110.309" id="path1637"></path></g><g transform="translate(488.6382,424.998)" id="g1639" stroke="#ffffff" stroke-width="30" stroke-linecap="round" stroke-linejoin="round"><path d="M0,0l-63.64,-63.639l-58.69,4.95l-4.949,58.689l63.639,63.64l4.95,-58.69z" id="path1641"></path></g><g transform="translate(455.2451,391.6055)" id="g1643" stroke="#ffffff" stroke-width="30" stroke-linecap="round" stroke-linejoin="round"><path d="M0,0l-30.247,-30.246l-58.69,4.949l-4.949,58.69l30.246,30.247c-38.633,26.344 -85.317,41.755 -135.605,41.755c-133.101,0 -241,-107.9 -241,-241c0,-133.101 107.899,-241 241,-241c133.1,0 241,107.899 241,241c0,50.288 -15.411,96.972 -41.755,135.605z" id="path1645"></path></g></g></g></g></g></g></svg>