<?xml version="1.0" encoding="utf-8"?>
<!-- Generator: Adobe Illustrator 25.0.0, SVG Export Plug-In . SVG Version: 6.00 Build 0)  -->
<svg version="1.1" id="Layer_1" xmlns="http://www.w3.org/2000/svg" xmlns:xlink="http://www.w3.org/1999/xlink" x="0px" y="0px"
	 viewBox="0 0 247.2 247.3" style="enable-background:new 0 0 247.2 247.3;" xml:space="preserve">
<style type="text/css">
	.st0{fill:#E52A3F;}
	.st1{fill:#FFFFFF;}
</style>
<path class="st0" d="M235.8,247.3H11.5c-6.3,0-11.5-5.1-11.5-11.5V11.5C0,5.3,5.1,0,11.5,0h224.2c6.3,0,11.5,5.1,11.5,11.5v224.2
	C247.2,242.2,242.1,247.3,235.8,247.3z"/>
<path class="st1" d="M188.3,88.9h-23.9v23.9c0,2.5-2,4.5-4.5,4.5h-19.3c-2.5,0-4.5-2-4.5-4.5V93.4c0-2.5,2-4.5,4.5-4.5h23.9V65
	c0-2.5-2-4.5-4.5-4.5h-24h-23.9c-2.5,0-4.5,2-4.5,4.5v23.9v28.4v28.4v6.1c0,2.5-2,4.5-4.5,4.5H83.6c-2.5,0-4.5-2-4.5-4.5v-69
	c0-2.5-2-4.5-4.5-4.5H55.2c-2.5,0-4.5,2-4.5,4.5v97.5c0,2.5,2,4.5,4.5,4.5h76.2c2.5,0,4.5-2,4.5-4.5v-30c0-2.5,2-4.5,4.5-4.5h23.9
	h7.1h16.8c2.5,0,4.5-2,4.5-4.5V93.4C192.8,90.9,190.8,88.9,188.3,88.9z"/>
<g>
	<rect x="173.7" y="53.8" class="st1" width="6.4" height="6.4"/>
	<rect x="184.6" y="66.2" class="st1" width="4.4" height="4.4"/>
	<rect x="186.8" y="53.8" class="st1" width="3.3" height="3.3"/>
	<rect x="198.5" y="67.3" class="st1" width="3.3" height="3.3"/>
	<rect x="191.6" y="46.7" class="st1" width="1.6" height="1.6"/>
	<rect x="200.5" y="45.6" class="st1" width="1.3" height="1.3"/>
	<rect x="195.9" y="54.6" class="st1" width="1.6" height="1.6"/>
	<rect x="174.3" y="72.3" class="st1" width="3.6" height="3.6"/>
	<rect x="191.1" y="76.3" class="st1" width="2.6" height="2.6"/>
</g>
</svg>
